<svg xmlns="http://www.w3.org/2000/svg" viewBox="0 0 124 90"><g clip-path="url(#clip0_101_148)"><path d="M28.3337 38.2054C27.4805 37.9735 26.6043 37.8394 25.7214 37.8057V53.136C25.8508 53.1688 25.9837 53.1853 26.1171 53.1853C27.5609 53.2526 29.0027 53.0139 30.3498 52.4845C32.6151 51.5427 34.0893 49.0078 34.0893 46.0731C34.1001 42.0817 31.9865 39.2511 28.3337 38.2054Z"></path><path d="M28.7672 16.2556C23.0774 16.2545 17.515 17.9581 12.7836 21.1508C8.05212 24.3435 4.36412 28.8819 2.18597 34.1922C0.00782258 39.5025 -0.562642 45.3461 0.546732 50.9839C1.65611 56.6217 4.39548 61.8006 8.41842 65.8655C12.4414 69.9304 17.5672 72.6988 23.1476 73.8206C28.728 74.9425 34.5124 74.3673 39.7692 72.1678C45.0261 69.9683 49.5192 66.2434 52.6804 61.4641C55.8416 56.6847 57.5289 51.0657 57.5289 45.3175C57.5296 41.5013 56.7862 37.7224 55.3411 34.1964C53.896 30.6705 51.7776 27.4667 49.1067 24.768C46.4359 22.0693 43.265 19.9285 39.7751 18.4679C36.2852 17.0074 32.5447 16.2556 28.7672 16.2556ZM38.6796 59.5857C36.9562 60.5822 34.7883 61.2282 31.9376 61.6772C29.4115 62.0473 26.8584 62.1957 24.3069 62.1207C22.3396 62.1207 18.1557 61.825 15.3483 61.4746C15.0502 61.4253 14.5137 61.3761 13.8742 61.3268V29.2043C17.6709 28.6491 21.5069 28.4166 25.342 28.5089C28.6716 28.5427 31.9817 29.027 35.184 29.9489C42.1752 32.0404 46.4079 38.0083 46.4079 45.761C46.4231 48.5458 45.7181 51.2862 44.3625 53.7111C43.007 56.1359 41.048 58.1609 38.6796 59.5857Z"></path><path d="M80.9523 29.6917C83.4941 29.8614 84.9628 27.8739 84.9628 24.2768C84.9628 20.6796 83.1255 18.2542 80.5458 18.2542C77.9661 18.2542 76.6545 20.1923 76.6545 23.6252C76.6545 27.0581 78.4593 29.5274 80.9523 29.6917Z"></path><path d="M80.8547 48.0606C85.5588 48.0584 90.1566 46.6472 94.0669 44.0054C97.9771 41.3636 101.024 37.6099 102.823 33.2187C104.622 28.8276 105.091 23.9962 104.172 19.3355C103.253 14.6748 100.987 10.3941 97.6597 7.03446C94.3327 3.67486 90.0943 1.38727 85.4805 0.460944C80.8666 -0.465383 76.0845 0.0111413 71.7387 1.83026C67.3929 3.64938 63.6786 6.7294 61.0654 10.6809C58.4522 14.6325 57.0574 19.278 57.0574 24.0303C57.0574 27.1869 57.673 30.3126 58.869 33.2288C60.0651 36.145 61.8182 38.7946 64.0281 41.0262C66.2381 43.2577 68.8615 45.0275 71.7487 46.2345C74.6359 47.4415 77.7301 48.062 80.8547 48.0606ZM72.075 12.33C74.7083 10.572 77.796 9.63694 80.9523 9.64169C85.1308 9.64169 88.6915 11.005 91.4338 13.7316C94.0132 16.3023 95.4953 19.7901 95.5635 23.4499C95.5635 28.5363 93.8455 32.4237 90.4095 35.1941C87.6331 37.3208 84.2358 38.4552 80.7518 38.4189C76.2481 38.4189 72.5628 36.968 69.9885 34.1593C67.5571 31.4813 66.1873 27.9924 66.1406 24.3588C66.1406 19.1903 68.1838 15.0183 72.075 12.33Z"></path><path d="M74.4758 52.1943C70.7741 52.1933 67.1553 53.3013 64.077 55.3782C60.9987 57.4552 58.5992 60.4078 57.1821 63.8625C55.7651 67.3173 55.394 71.119 56.1159 74.7869C56.8378 78.4547 58.6202 81.8239 61.2377 84.4682C63.8552 87.1125 67.1902 88.9132 70.8209 89.6425C74.4515 90.3718 78.2147 89.997 81.6344 88.5654C85.0541 87.1338 87.9767 84.7097 90.0326 81.5999C92.0885 78.49 93.1853 74.8341 93.1842 71.0945C93.1828 66.0823 91.2113 61.2758 87.7031 57.7317C84.1949 54.1875 79.4372 52.1958 74.4758 52.1943ZM83.6891 68.1543H78.4321V83.3861H70.5141V68.1543H65.2626V61.617H83.6891V68.1543Z"></path><path d="M109.443 42.1255C106.564 42.1255 103.749 42.988 101.356 44.6039C98.9617 46.2198 97.0959 48.5166 95.9941 51.2038C94.8923 53.891 94.604 56.848 95.1657 59.7007C95.7274 62.5534 97.1138 65.1738 99.1496 67.2305C101.185 69.2872 103.779 70.6878 106.603 71.2552C109.427 71.8227 112.354 71.5314 115.014 70.4184C117.674 69.3053 119.947 67.4204 121.547 65.002C123.146 62.5835 124 59.7403 124 56.8316C123.999 52.9318 122.464 49.192 119.735 46.4344C117.005 43.6768 113.303 42.1269 109.443 42.1255ZM109.345 65.5042C107.011 65.4737 104.725 64.8303 102.712 63.6372L103.205 58.5508C104.831 59.8977 106.164 60.5711 107.741 60.7956C108.533 60.9216 109.047 60.5931 109.047 60.0237C109.047 59.7225 108.901 59.4761 108.505 59.2024C108.31 59.0491 108.115 58.9286 107.963 58.8246L106.636 58.08L105.991 57.6803C105.195 57.2723 104.531 56.6435 104.077 55.8676C103.623 55.0917 103.398 54.2011 103.427 53.3002C103.415 52.4595 103.631 51.6315 104.053 50.9065C104.474 50.1814 105.085 49.5872 105.817 49.1884C107.023 48.5254 108.369 48.1666 109.741 48.1426C111.963 48.1426 113.443 48.5149 115.811 49.6592L114.846 53.9463C113.416 53.125 112.256 52.6979 111.345 52.6979C110.803 52.6979 110.381 52.9498 110.359 53.3714C110.359 53.5958 110.478 53.8203 110.776 54.0448C110.874 54.1215 111.172 54.2967 111.741 54.6197C112.821 55.1869 113.837 55.8717 114.77 56.6619C115.65 57.5286 116.163 58.7062 116.201 59.947C116.174 63.2868 113.464 65.5042 109.345 65.5042Z"></path></g><defs><clipPath id="clip0_101_148"><rect width="124" height="90" fill="white"></rect></clipPath></defs></svg>
